# WaveFront *.obj file (generated by Cinema 4D)

mtllib ./singleWall.mtl

v 500.000000 193.592593 -197.500000
v 500.000000 7.407406 -198.500000
v -200.000000 192.592593 -200.000000
v 500.000000 192.592593 -200.000000
v -200.000000 185.185185 -200.000000
v 500.000000 185.185185 -200.000000
v -200.000000 177.777778 -200.000000
v 500.000000 177.777778 -200.000000
v -200.000000 170.370370 -200.000000
v 500.000000 170.370370 -200.000000
v -200.000000 162.962963 -200.000000
v 500.000000 162.962963 -200.000000
v -200.000000 155.555555 -200.000000
v 500.000000 155.555555 -200.000000
v -200.000000 148.148148 -200.000000
v 500.000000 148.148148 -200.000000
v -200.000000 140.740740 -200.000000
v 500.000000 140.740740 -200.000000
v -200.000000 133.333333 -200.000000
v 500.000000 133.333333 -200.000000
v -200.000000 125.925925 -200.000000
v 500.000000 125.925925 -200.000000
v -200.000000 118.518518 -200.000000
v 500.000000 118.518518 -200.000000
v -200.000000 111.111110 -200.000000
v 500.000000 111.111110 -200.000000
v -200.000000 103.703703 -200.000000
v 500.000000 103.703703 -200.000000
v -200.000000 96.296296 -200.000000
v 500.000000 96.296296 -200.000000
v -200.000000 88.888888 -200.000000
v 500.000000 88.888888 -200.000000
v -200.000000 81.481481 -200.000000
v 500.000000 81.481481 -200.000000
v -200.000000 74.074073 -200.000000
v 500.000000 74.074073 -200.000000
v -200.000000 66.666666 -200.000000
v 500.000000 66.666666 -200.000000
v -200.000000 59.259258 -200.000000
v 500.000000 59.259258 -200.000000
v -200.000000 51.851851 -200.000000
v 500.000000 51.851851 -200.000000
v -200.000000 44.444443 -200.000000
v 500.000000 44.444443 -200.000000
v -200.000000 37.037036 -200.000000
v 500.000000 37.037036 -200.000000
v -200.000000 29.629628 -200.000000
v 500.000000 29.629628 -200.000000
v -200.000000 22.222221 -200.000000
v 500.000000 22.222221 -200.000000
v -200.000000 14.814813 -200.000000
v 500.000000 14.814813 -200.000000
v -200.000000 7.407406 -200.000000
v 500.000000 7.407406 -200.000000
v -200.000000 200.000001 200.000000
v 500.000000 6.407406 -197.500000
v -200.000000 0.000000 200.000000
v -200.000000 7.407407 200.000000
v 500.000000 192.592593 -198.500000
v -200.000000 192.592594 200.000000
v -197.500000 200.000001 200.000000
v -197.500000 192.592594 200.000000
v -200.000000 200.000000 -197.500000
v 500.000000 200.000000 -197.500000
v -197.500000 7.407407 200.000000
v -197.500000 0.000000 200.000000
v 500.000000 -0.000001 -197.500000
v -200.000000 -0.000001 -197.500000
v -200.000000 6.407406 -197.500000
v -200.000000 7.407406 -198.500000
v -200.000000 192.592593 -198.500000
v -200.000000 193.592593 -197.500000
# 72 vertices

vn 0.000000 0.000000 1.000000
vn 0.000000 0.707107 0.707107
vn 0.000000 1.000000 0.000000
vn 0.000000 -0.707107 0.707107
vn 0.000000 -1.000000 0.000000
# 5 normals

vt 0.000000 0.037037 0.000000
vt 1.000000 0.037037 0.000000
vt 1.000000 0.074074 0.000000
vt 0.000000 0.074074 0.000000
vt 1.000000 0.111111 0.000000
vt 0.000000 0.111111 0.000000
vt 1.000000 0.148148 0.000000
vt 0.000000 0.148148 0.000000
vt 1.000000 0.185185 0.000000
vt 0.000000 0.185185 0.000000
vt 1.000000 0.222222 0.000000
vt 0.000000 0.222222 0.000000
vt 1.000000 0.259259 0.000000
vt 0.000000 0.259259 0.000000
vt 1.000000 0.296296 0.000000
vt 0.000000 0.296296 0.000000
vt 1.000000 0.333333 0.000000
vt 0.000000 0.333333 0.000000
vt 1.000000 0.370370 0.000000
vt 0.000000 0.370370 0.000000
vt 1.000000 0.407407 0.000000
vt 0.000000 0.407407 0.000000
vt 1.000000 0.444444 0.000000
vt 0.000000 0.444444 0.000000
vt 1.000000 0.481482 0.000000
vt 0.000000 0.481482 0.000000
vt 1.000000 0.518519 0.000000
vt 0.000000 0.518519 0.000000
vt 1.000000 0.555556 0.000000
vt 0.000000 0.555556 0.000000
vt 1.000000 0.592593 0.000000
vt 0.000000 0.592593 0.000000
vt 1.000000 0.629630 0.000000
vt 0.000000 0.629630 0.000000
vt 1.000000 0.666667 0.000000
vt 0.000000 0.666667 0.000000
vt 1.000000 0.703704 0.000000
vt 0.000000 0.703704 0.000000
vt 1.000000 0.740741 0.000000
vt 0.000000 0.740741 0.000000
vt 1.000000 0.777778 0.000000
vt 0.000000 0.777778 0.000000
vt 1.000000 0.814815 0.000000
vt 0.000000 0.814815 0.000000
vt 1.000000 0.851852 0.000000
vt 0.000000 0.851852 0.000000
vt 1.000000 0.888889 0.000000
vt 0.000000 0.888889 0.000000
vt 1.000000 0.925926 0.000000
vt 0.000000 0.925926 0.000000
vt 1.000000 0.962963 0.000000
vt 0.000000 0.962963 0.000000
vt 0.037037 0.000000 0.000000
vt 0.000000 0.000000 0.000000
vt 1.000000 0.967963 0.000000
vt 0.000000 0.967963 0.000000
vt 0.000000 0.032037 0.000000
vt 1.000000 0.032037 0.000000
vt 1.000000 1.000000 0.000000
vt 0.000000 1.000000 0.000000
vt 1.000000 0.000000 0.000000
vt 0.962963 0.000000 0.000000
# 62 texture coordinates

o Plane.4
usemtl Mat
f 5/4/1 7/6/1 9/8/1 11/10/1 13/12/1 15/14/1 17/16/1 19/18/1 21/20/1 23/22/1 25/24/1 27/26/1 29/28/1 31/30/1 33/32/1 35/34/1 37/36/1 39/38/1 41/40/1 43/42/1 45/44/1 47/46/1 49/48/1 51/50/1 53/52/1 54/51/1 52/49/1 50/47/1 48/45/1 46/43/1 44/41/1 42/39/1 40/37/1 38/35/1 36/33/1 34/31/1 32/29/1 30/27/1 28/25/1 26/23/1 24/21/1 22/19/1 20/17/1 18/15/1 16/13/1 14/11/1 12/9/1 10/7/1 8/5/1 6/3/1 4/2/1 3/1/1
f 58/53/1 57/54/1 66/54/1 65/53/1
f 55/61/1 60/62/1 62/62/1 61/61/1

usemtl Mat.1
f 69/56/2 56/55/2 2/51/2 70/52/2
f 2/51/3 54/51/3 53/52/3 70/52/3
f 1/58/4 72/57/4 71/1/4 59/2/4
f 69/56/1 68/60/1 67/59/1 56/55/1
f 72/57/1 1/58/1 64/61/1 63/54/1
f 71/1/5 3/1/5 4/2/5 59/2/5

