# WaveFront *.obj file (generated by Cinema 4D)

mtllib ./commandcenter_test.mtl

v 0.000000 0.000000 0.000000
v 83.100000 0.000000 0.000000
v 83.149158 0.000000 -34.441509
v 63.639610 0.000000 -63.639610
v 34.441509 0.000000 -83.149158
v 0.000000 0.000000 -83.100000
v -34.441509 0.000000 -83.149158
v -63.639610 0.000000 -63.639610
v -83.149158 0.000000 -34.441509
v -83.100000 0.000000 -0.000000
v -83.149158 0.000000 34.441509
v -63.639610 0.000000 63.639610
v -34.441509 0.000000 83.149158
v -0.000000 0.000000 83.100000
v 34.441509 0.000000 83.149158
v 63.639610 0.000000 63.639610
v 83.149158 0.000000 34.441509
v 34.427236 0.000000 93.149148
v -0.000000 0.000000 93.100010
v -34.427236 0.000000 93.149148
v -93.149148 0.000000 34.427236
v -93.100010 0.000000 -0.000000
v -93.149148 0.000000 -34.427236
v -34.427236 0.000000 -93.149148
v 0.000000 0.000000 -93.100010
v 34.427236 0.000000 -93.149148
v 93.149148 0.000000 -34.427236
v 93.100010 0.000000 0.000000
v 93.149148 0.000000 34.427236
v 36.998095 200.000000 -89.321303
v 0.000000 200.000000 -89.268496
v -36.998095 200.000000 -89.321303
v -36.982763 200.000000 -100.063590
v 0.000000 200.000000 -100.010805
v 36.982763 200.000000 -100.063590
v 89.268496 200.000000 0.000000
v 89.321303 200.000000 -36.998095
v 89.321303 200.000000 36.998095
v 100.063590 200.000000 -36.982763
v 100.010805 200.000000 0.000000
v 100.063590 200.000000 36.982763
v -36.998095 200.000000 89.321303
v -0.000000 200.000000 89.268496
v 36.998095 200.000000 89.321303
v 36.982763 200.000000 100.063590
v -0.000000 200.000000 100.010805
v -36.982763 200.000000 100.063590
v -89.321303 200.000000 -36.998095
v -89.268496 200.000000 -0.000000
v -89.321303 200.000000 36.998095
v -100.063590 200.000000 36.982763
v -100.010805 200.000000 -0.000000
v -100.063590 200.000000 -36.982763
v 73.996190 217.441396 -87.098635
v 0.000000 217.366716 -87.023954
v -73.996190 217.441396 -87.098635
v -73.965526 232.633284 -102.290523
v 0.000000 232.558635 -102.215873
v 73.965526 232.633284 -102.290523
v 87.023954 217.366716 -0.000000
v 87.098635 217.441396 -73.996190
v 87.098635 217.441396 73.996190
v 102.290523 232.633284 -73.965526
v 102.215873 232.558635 -0.000000
v 102.290523 232.633284 73.965526
v -73.996190 217.441396 87.098635
v -0.000000 217.366716 87.023954
v 73.996190 217.441396 87.098635
v 73.965526 232.633284 102.290523
v -0.000000 232.558635 102.215873
v -73.965526 232.633284 102.290523
v -87.098635 217.441396 -73.996190
v -87.023954 217.366716 -0.000000
v -87.098635 217.441396 73.996190
v -102.290523 232.633284 73.965526
v -102.215873 232.558635 -0.000000
v -102.290523 232.633284 -73.965526
v 96.600571 99.832297 8.925714
v 8.929415 99.832297 -86.230055
v -96.549613 99.832297 0.000000
v 96.600571 99.832297 -8.925714
v -8.925714 99.832297 -96.600571
v -0.000000 99.832297 96.549613
v -0.000000 99.832297 86.179076
v -8.925714 99.832297 96.600571
v 8.929415 99.832297 86.230055
v 86.230055 99.832297 8.929415
v -86.179076 99.832297 0.000000
v -8.929415 99.832297 -86.230055
v -0.000000 99.832297 -96.549613
v -86.230055 99.832297 -8.929415
v -96.600571 99.832297 -8.925714
v 96.549613 99.832297 0.000000
v -8.929415 99.832297 86.230055
v 86.230055 99.832297 -8.929415
v 8.925714 99.832297 -96.600571
v 86.179076 99.832297 0.000000
v -0.000000 99.832297 -86.179076
v 8.925714 99.832297 96.600571
v -86.230055 99.832297 8.929415
v -96.600571 99.832297 8.925714
# 101 vertices

vn -0.000000 0.707107 0.707107
vn -0.000000 0.707107 0.707107
vn 0.000000 0.707107 0.707107
vn -0.707107 0.707107 -0.000000
vn -0.707107 0.707107 0.000000
vn -0.707107 0.707107 -0.000000
vn 0.000000 0.707107 -0.707107
vn 0.000000 0.707107 -0.707107
vn -0.000000 0.707107 -0.707107
vn 0.707107 0.707107 0.000000
vn 0.707107 0.707107 -0.000000
vn 0.707107 0.707107 0.000000
vn 0.000000 1.000000 0.000000
vn 0.000000 1.000000 0.000000
vn 0.000000 1.000000 0.000000
vn -0.999404 -0.034520 -0.000000
vn -0.999398 -0.034507 -0.003566
vn -0.999371 -0.035270 -0.003566
vn -0.999388 -0.034997 0.000000
vn -0.998727 -0.050391 -0.002374
vn -0.998719 -0.050609 0.000000
vn -0.000892 -0.011533 0.999933
vn -0.000864 0.247517 0.968883
vn -0.000859 -0.269799 0.962916
vn 0.999518 0.030828 0.003567
vn 0.999525 0.030815 -0.000000
vn 0.999510 0.031292 0.000000
vn 0.999512 0.031019 0.003566
vn 0.998784 -0.049300 0.000000
vn 0.998792 -0.049075 0.002428
vn 0.999519 0.030802 -0.003567
vn 0.999495 0.031565 -0.003566
vn 0.998770 -0.049524 -0.002427
vn -0.000892 -0.011531 -0.999933
vn -0.000864 0.247519 -0.968883
vn -0.000859 -0.269797 -0.962917
vn -0.999397 -0.034533 0.003566
vn -0.999391 -0.034724 0.003566
vn -0.998705 -0.050827 0.002374
vn 0.003567 0.030828 -0.999518
vn -0.000000 0.030815 -0.999525
vn 0.000000 0.031292 -0.999510
vn 0.003566 0.031019 -0.999512
vn 0.000000 -0.049300 -0.998784
vn 0.002428 -0.049075 -0.998792
vn -0.003567 0.030802 -0.999519
vn -0.003566 0.031565 -0.999495
vn -0.002427 -0.049524 -0.998770
vn -0.999933 -0.011531 0.000892
vn -0.968883 0.247519 0.000864
vn -0.962917 -0.269797 0.000859
vn 0.003566 -0.034533 0.999397
vn -0.000000 -0.034520 0.999404
vn 0.000000 -0.034997 0.999388
vn 0.003566 -0.034724 0.999391
vn 0.000000 -0.050609 0.998719
vn 0.002374 -0.050827 0.998705
vn -0.003566 -0.034507 0.999398
vn -0.003566 -0.035270 0.999371
vn -0.002374 -0.050391 0.998727
vn 0.999933 -0.011533 0.000892
vn 0.968883 0.247517 0.000864
vn 0.962916 -0.269799 0.000859
vn -0.493986 -0.806106 -0.325838
vn 0.001181 -0.067024 -0.997751
vn 0.002374 -0.050391 -0.998727
vn -0.000000 -0.050609 -0.998719
vn -0.000000 -0.067160 -0.997742
vn -0.002374 -0.050827 -0.998705
vn -0.001182 -0.067297 -0.997732
vn 0.544837 -0.758929 -0.356624
vn 0.001273 -0.128773 0.991673
vn 0.002427 -0.049524 0.998770
vn -0.000000 -0.049300 0.998784
vn -0.000000 -0.128624 0.991693
vn -0.002428 -0.049075 0.998792
vn -0.001273 -0.128476 0.991712
vn 0.997742 -0.067160 -0.000000
vn 0.998719 -0.050609 -0.000000
vn 0.998705 -0.050827 -0.002374
vn 0.997732 -0.067297 -0.001182
vn 0.356624 -0.758929 0.544837
vn -0.991673 -0.128773 0.001273
vn -0.998770 -0.049524 0.002427
vn -0.998784 -0.049300 -0.000000
vn -0.991693 -0.128624 -0.000000
vn -0.998792 -0.049075 -0.002428
vn -0.991712 -0.128476 -0.001273
vn 0.325838 -0.806106 -0.493986
vn 0.997751 -0.067024 0.001181
vn 0.998727 -0.050391 0.002374
vn 0.493986 -0.806106 0.325838
vn -0.001181 -0.067024 0.997751
vn 0.000000 -0.067160 0.997742
vn 0.001182 -0.067297 0.997732
vn -0.544837 -0.758929 0.356624
vn -0.001273 -0.128773 -0.991673
vn 0.000000 -0.128624 -0.991693
vn 0.001273 -0.128476 -0.991712
vn -0.997742 -0.067160 0.000000
vn -0.997732 -0.067297 0.001182
vn -0.356624 -0.758929 -0.544837
vn 0.991673 -0.128773 -0.001273
vn 0.991693 -0.128624 0.000000
vn 0.991712 -0.128476 0.001273
vn -0.325838 -0.806106 0.493986
vn -0.997751 -0.067024 -0.001181
vn -0.962916 -0.269799 -0.000859
vn -0.999933 -0.011533 -0.000892
vn -0.968883 0.247517 -0.000864
vn 0.003566 -0.034507 -0.999398
vn 0.000000 -0.034520 -0.999404
vn 0.003566 -0.035270 -0.999371
vn -0.000000 -0.034997 -0.999388
vn -0.003566 -0.034533 -0.999397
vn -0.003566 -0.034724 -0.999391
vn 0.962917 -0.269797 -0.000859
vn 0.999933 -0.011531 -0.000892
vn 0.968883 0.247519 -0.000864
vn 0.003567 0.030802 0.999519
vn 0.000000 0.030815 0.999525
vn 0.003566 0.031565 0.999495
vn -0.000000 0.031292 0.999510
vn -0.003567 0.030828 0.999518
vn -0.003566 0.031019 0.999512
vn 0.999404 -0.034520 0.000000
vn 0.999397 -0.034533 -0.003566
vn 0.999388 -0.034997 -0.000000
vn 0.999391 -0.034724 -0.003566
vn 0.000859 -0.269797 0.962917
vn 0.000892 -0.011531 0.999933
vn 0.000864 0.247519 0.968883
vn -0.999519 0.030802 0.003567
vn -0.999525 0.030815 0.000000
vn -0.999495 0.031565 0.003566
vn -0.999510 0.031292 -0.000000
vn -0.999518 0.030828 -0.003567
vn -0.999512 0.031019 -0.003566
vn 0.000859 -0.269799 -0.962916
vn 0.000892 -0.011533 -0.999933
vn 0.000864 0.247517 -0.968883
vn 0.999398 -0.034507 0.003566
vn 0.999371 -0.035270 0.003566
# 143 normals

vt 0.308658 0.961940 0.000000
vt 0.500000 1.000000 0.000000
vt 0.691342 0.961940 0.000000
vt 1.000000 0.500000 0.000000
vt 0.961940 0.308658 0.000000
vt 0.961940 0.691342 0.000000
vt 0.691342 0.038060 0.000000
vt 0.500000 0.000000 0.000000
vt 0.308658 0.038060 0.000000
vt 0.000000 0.500000 0.000000
vt 0.038060 0.691342 0.000000
vt 0.038060 0.308658 0.000000
vt 0.500000 0.500000 0.000000
vt 0.000000 1.000000 0.000000
vt 0.853553 0.853553 0.000000
vt 0.146447 0.853553 0.000000
vt 0.146447 0.146447 0.000000
vt 0.853553 0.146447 0.000000
# 18 texture coordinates

o Disc
usemtl default
f 55/2/2 54/3/3 59/3/3 58/2/2 57/1/1 56/1/1
f 63/6/6 61/6/6 60/4/4 62/5/5 65/5/5 64/4/4
f 67/8/8 66/9/9 71/9/9 70/8/8 69/7/7 68/7/7
f 75/12/12 74/12/12 73/10/10 72/11/11 77/11/11 76/10/10
f 3/6/13 1/13/13 2/4/13
f 4/15/13 1/13/13 3/6/13
f 5/3/13 1/13/13 4/15/13
f 6/2/13 1/13/13 5/3/13
f 7/1/13 1/13/13 6/2/13
f 8/16/13 1/13/13 7/1/13
f 9/11/13 1/13/13 8/16/13
f 10/10/13 1/13/13 9/11/13
f 11/12/13 1/13/13 10/10/13
f 12/17/14 1/13/13 11/12/13
f 13/9/13 1/13/13 12/17/14
f 14/8/13 1/13/13 13/9/13
f 15/7/13 1/13/13 14/8/13
f 16/18/15 1/13/13 15/7/13
f 17/5/13 1/13/13 16/18/15
f 2/4/13 1/13/13 17/5/13
f 22/10/19 21/12/18 101/12/17 80/10/16
f 52/10/21 80/10/16 101/12/17 51/12/20
f 21/12/23 11/12/23 100/12/22 101/12/22
f 51/12/24 101/12/22 100/12/22 50/12/24
f 11/12/28 10/10/27 88/10/26 100/12/25
f 50/12/30 100/12/25 88/10/26 49/10/29
f 10/10/27 9/11/32 91/11/31 88/10/26
f 49/10/29 88/10/26 91/11/31 48/11/33
f 9/11/35 23/11/35 92/11/34 91/11/34
f 48/11/36 91/11/34 92/11/34 53/11/36
f 23/11/38 22/10/19 80/10/16 92/11/37
f 53/11/39 92/11/37 80/10/16 52/10/21
f 15/7/43 14/8/42 84/8/41 86/7/40
f 44/7/45 86/7/40 84/8/41 43/8/44
f 14/8/42 13/9/47 94/9/46 84/8/41
f 43/8/44 84/8/41 94/9/46 42/9/48
f 13/9/50 20/9/50 85/9/49 94/9/49
f 42/9/51 94/9/49 85/9/49 47/9/51
f 20/9/55 19/8/54 83/8/53 85/9/52
f 47/9/57 85/9/52 83/8/53 46/8/56
f 19/8/54 18/7/59 99/7/58 83/8/53
f 46/8/56 83/8/53 99/7/58 45/7/60
f 18/7/62 15/7/62 86/7/61 99/7/61
f 45/7/63 99/7/61 86/7/61 44/7/63
f 57/1/64 33/1/64 32/1/64 56/1/64
f 58/2/68 34/2/67 33/1/66 57/1/65
f 59/3/70 35/3/69 34/2/67 58/2/68
f 54/3/71 30/3/71 35/3/71 59/3/71
f 55/2/75 31/2/74 30/3/73 54/3/72
f 56/1/77 32/1/76 31/2/74 55/2/75
f 65/5/81 41/5/80 40/4/79 64/4/78
f 62/5/82 38/5/82 41/5/82 65/5/82
f 60/4/86 36/4/85 38/5/84 62/5/83
f 61/6/88 37/6/87 36/4/85 60/4/86
f 63/6/89 39/6/89 37/6/89 61/6/89
f 64/4/78 40/4/79 39/6/91 63/6/90
f 69/7/92 45/7/92 44/7/92 68/7/92
f 70/8/94 46/8/56 45/7/60 69/7/93
f 71/9/95 47/9/57 46/8/56 70/8/94
f 66/9/96 42/9/96 47/9/96 71/9/96
f 67/8/98 43/8/44 42/9/48 66/9/97
f 68/7/99 44/7/45 43/8/44 67/8/98
f 77/11/101 53/11/39 52/10/21 76/10/100
f 72/11/102 48/11/102 53/11/102 77/11/102
f 73/10/104 49/10/29 48/11/33 72/11/103
f 74/12/105 50/12/30 49/10/29 73/10/104
f 75/12/106 51/12/106 50/12/106 74/12/106
f 76/10/100 52/10/21 51/12/20 75/12/107
f 33/1/108 82/1/109 89/1/109 32/1/108
f 24/1/110 7/1/110 89/1/109 82/1/109
f 34/2/67 90/2/112 82/1/111 33/1/66
f 25/2/114 24/1/113 82/1/111 90/2/112
f 35/3/69 96/3/115 90/2/112 34/2/67
f 26/3/116 25/2/114 90/2/112 96/3/115
f 30/3/117 79/3/118 96/3/118 35/3/117
f 5/3/119 26/3/119 96/3/118 79/3/118
f 31/2/74 98/2/121 79/3/120 30/3/73
f 6/2/123 5/3/122 79/3/120 98/2/121
f 32/1/76 89/1/124 98/2/121 31/2/74
f 7/1/125 6/2/123 98/2/121 89/1/124
f 41/5/80 78/5/127 93/4/126 40/4/79
f 29/5/129 28/4/128 93/4/126 78/5/127
f 38/5/130 87/5/131 78/5/131 41/5/130
f 17/5/132 29/5/132 78/5/131 87/5/131
f 36/4/85 97/4/134 87/5/133 38/5/84
f 2/4/136 17/5/135 87/5/133 97/4/134
f 37/6/87 95/6/137 97/4/134 36/4/85
f 3/6/138 2/4/136 97/4/134 95/6/137
f 39/6/139 81/6/140 95/6/140 37/6/139
f 27/6/141 3/6/141 95/6/140 81/6/140
f 40/4/79 93/4/126 81/6/142 39/6/91
f 28/4/128 27/6/143 81/6/142 93/4/126

