# WaveFront *.obj file (generated by Cinema 4D)

mtllib ./smallCommandButton.mtl

v -10.000000 -1.000000 5.000000
v -7.500000 1.000000 3.750000
v 10.000000 -1.000000 5.000000
v 7.500000 1.000000 3.750000
v 10.000000 -1.000000 -5.000000
v 7.500000 1.000000 -3.750000
v -10.000000 -1.000000 -5.000000
v -7.500000 1.000000 -3.750000
# 8 vertices

vn 0.000000 0.529999 0.847998
vn 0.624695 0.780869 0.000000
vn 0.331007 0.943628 0.000000
vn 0.000000 0.529999 -0.847998
vn -0.624695 0.780869 0.000000
vn -0.331007 0.943628 0.000000
vn 0.000000 -1.000000 0.000000
# 7 normals

vt 0.000000 0.000000 0.000000
vt 0.000000 1.000000 0.000000
vt 1.000000 1.000000 0.000000
vt 1.000000 0.000000 0.000000
# 4 texture coordinates

o Cube.1
usemtl default
f 3/4/1 4/3/1 2/2/1 1/1/1
f 5/4/2 6/3/3 4/2/3 3/1/2
f 7/4/4 8/3/4 6/2/4 5/1/4
f 1/4/5 2/3/6 8/2/6 7/1/5
f 4/4/3 6/3/3 8/2/6 2/1/6
f 5/4/7 3/3/7 1/2/7 7/1/7

